<svg preserveAspectRatio="none" width="100%" height="100%" overflow="visible" style="display: block;" viewBox="0 0 127 32" fill="none" xmlns="http://www.w3.org/2000/svg">
<g id="Logo">
<path id="Vector" d="M23.1668 0.601562C10.6132 0.601562 0.4375 7.09852 0.4375 15.1137C0.4375 23.1289 10.6132 30.2551 23.1668 30.2551C35.7205 30.2551 45.8958 23.1283 45.8958 15.1137C45.8958 7.09909 35.7198 0.601562 23.1668 0.601562Z" fill="var(--fill-0, #00BCFF)"/>
<path id="Vector_2" d="M15.7706 10.6267C15.7593 10.6489 15.5372 10.8782 15.6812 11.0625C16.0325 11.5107 17.1182 11.7676 18.2161 11.5217C18.8698 11.3753 19.7076 10.7099 20.5193 10.0673C21.2942 9.36489 22.1831 8.7992 23.1481 8.39443C23.7646 8.16913 24.438 8.15155 25.0654 8.34437C25.7025 8.58059 26.2938 8.92496 26.8133 9.36226C28.337 10.5058 34.4643 15.8438 35.5233 16.7662C38.7766 15.4159 42.1449 14.3599 45.5875 13.6109C45.1398 10.8709 43.4886 8.25889 40.9554 6.20638C37.4245 7.68645 32.8219 8.57266 28.6029 6.51658C27.1693 5.8689 25.6194 5.51713 24.0461 5.48242C20.6988 5.56014 19.2488 7.00574 17.7143 8.53621L15.7706 10.6267Z" fill="var(--fill-0, white)"/>
<path id="Vector_3" d="M35.2744 17.3471C35.2021 17.2827 28.0698 11.0538 26.4536 9.84161C25.8906 9.34172 25.1963 9.01269 24.4523 8.89322C24.132 8.86776 23.8097 8.89869 23.5001 8.9846C22.5459 9.34328 21.6631 9.86832 20.8928 10.5352C19.9897 11.2536 19.1378 11.9298 18.3467 12.1067C17.3908 12.3027 16.3963 12.1535 15.5404 11.6859C15.34 11.5635 15.1785 11.3869 15.0746 11.1766C15.0175 11.0154 15.0096 10.8409 15.0521 10.6752C15.0946 10.5096 15.1855 10.3603 15.3132 10.2464L17.2817 8.12146C17.5108 7.89381 17.7408 7.66547 17.9774 7.44121C17.3703 7.53228 16.7706 7.66706 16.1829 7.84449C15.5062 8.06882 14.802 8.1999 14.0898 8.2341C13.3721 8.16159 12.6588 8.05032 11.9532 7.90078C9.84908 7.40802 7.79518 6.72202 5.81773 5.85156C3.01928 7.93071 1.19703 10.4835 0.65625 13.3467C1.05832 13.4527 2.11193 13.6925 2.38422 13.7528C8.71722 15.158 10.6894 16.6056 11.0472 16.9081C11.2576 16.6716 11.5191 16.4859 11.8118 16.3649C12.1045 16.2439 12.4209 16.1906 12.7372 16.2092C13.0535 16.2278 13.3615 16.3177 13.638 16.4723C13.9144 16.6268 14.1522 16.8418 14.3334 17.1012C14.7605 16.7566 15.2935 16.5694 15.8427 16.5712C16.1513 16.5741 16.4572 16.6276 16.7484 16.7295C17.0306 16.8196 17.2903 16.9687 17.5102 17.167C17.73 17.3652 17.9049 17.608 18.0231 17.8792C18.2999 17.754 18.6005 17.6902 18.9043 17.6921C19.2676 17.6967 19.6262 17.7756 19.9577 17.924C20.4188 18.1397 20.7929 18.5052 21.0187 18.9607C21.2445 19.4162 21.3087 19.9348 21.2008 20.4314C21.2846 20.4224 21.3688 20.418 21.4531 20.4181C22.1187 20.4192 22.7567 20.6836 23.2273 21.1535C23.6978 21.6233 23.9625 22.2603 23.9633 22.9246C23.9633 23.3378 23.86 23.7444 23.6629 24.1077C24.3183 24.5075 25.0755 24.7099 25.8434 24.6905C26.0349 24.6906 26.2243 24.6512 26.3998 24.5748C26.5753 24.4984 26.7331 24.3867 26.8634 24.2466C26.9265 24.1578 26.9924 24.0539 26.9311 23.9789L25.1442 21.9984C25.1442 21.9984 24.8502 21.7206 24.9474 21.6136C25.0477 21.5034 25.2295 21.6614 25.3586 21.7688C26.2677 22.5265 27.3776 23.6706 27.3776 23.6706C27.3971 23.683 27.4701 23.828 27.8806 23.9015C28.1261 23.9442 28.3776 23.937 28.6203 23.8805C28.8629 23.824 29.0916 23.7194 29.2929 23.5728C29.4068 23.4775 29.511 23.3712 29.6038 23.2553C29.5975 23.2615 29.5905 23.267 29.5829 23.2715C29.7082 23.0987 29.7713 22.8887 29.762 22.6756C29.7527 22.4625 29.6716 22.2588 29.5318 22.0975L27.4457 19.7595C27.4457 19.7595 27.1473 19.4837 27.2496 19.374C27.3401 19.2776 27.5318 19.4228 27.6628 19.5311C28.3229 20.0824 29.2562 21.0163 30.1505 21.8916C30.4487 22.0928 30.8031 22.1945 31.1628 22.1821C31.5226 22.1696 31.8691 22.0437 32.1525 21.8223C32.3847 21.6944 32.5769 21.5047 32.7076 21.2744C32.8382 21.044 32.9024 20.782 32.8929 20.5175C32.8478 20.1867 32.6927 19.8807 32.4524 19.6485L29.6038 16.7888C29.6038 16.7888 29.3021 16.5322 29.4089 16.4028C29.4963 16.2935 29.6905 16.4506 29.8194 16.5576C30.7266 17.3157 33.1836 19.5646 33.1836 19.5646C33.4731 19.7511 33.8118 19.847 34.1563 19.8402C34.5008 19.8334 34.8353 19.724 35.1172 19.5262C35.2982 19.4205 35.4506 19.2723 35.5612 19.0945C35.6718 18.9167 35.7373 18.7146 35.7519 18.5058C35.7603 18.2898 35.722 18.0745 35.6396 17.8745C35.5572 17.6746 35.4327 17.4947 35.2744 17.3471V17.3471Z" fill="var(--fill-0, white)"/>
<path id="Vector_4" d="M21.4562 20.9715C21.1216 21.0184 20.7911 21.0915 20.4679 21.19C20.4327 21.1674 20.495 20.99 20.5361 20.8879C20.5791 20.7868 21.1609 19.039 19.7423 18.4325C19.4249 18.2625 19.0609 18.1994 18.7046 18.2524C18.3483 18.3054 18.0187 18.4718 17.7647 18.7268C17.7054 18.7886 17.6784 18.7835 17.6718 18.7054C17.6634 18.3791 17.5528 18.0636 17.3555 17.8032C17.1583 17.5428 16.8843 17.3506 16.5721 17.2536C16.1299 17.1177 15.6555 17.1281 15.2197 17.2832C14.7839 17.4383 14.4099 17.7297 14.1535 18.1141C14.1078 17.7695 13.947 17.4504 13.6972 17.2082C13.4474 16.966 13.123 16.815 12.7766 16.7796C12.4301 16.7441 12.0818 16.8262 11.7879 17.0127C11.494 17.1992 11.2717 17.4791 11.1569 17.8073C11.0421 18.1354 11.0414 18.4927 11.1551 18.8212C11.2688 19.1498 11.4902 19.4304 11.7834 19.6179C12.0767 19.8054 12.4247 19.8888 12.7713 19.8545C13.1179 19.8202 13.4427 19.6703 13.6934 19.429C13.7024 19.4371 13.7058 19.4517 13.7014 19.481C13.5964 19.9598 13.6677 20.4603 13.9022 20.8909C14.1367 21.3216 14.5186 21.6535 14.9782 21.8261C15.2265 21.9217 15.4955 21.9507 15.7585 21.9101C16.0215 21.8696 16.2693 21.7611 16.4771 21.5953C16.6003 21.5087 16.6202 21.5451 16.6029 21.661C16.5501 22.0193 16.6173 22.7869 17.6955 23.2227C17.9626 23.3533 18.2648 23.3946 18.5573 23.3403C18.8498 23.2861 19.1169 23.1392 19.3192 22.9215C19.458 22.796 19.4958 22.8164 19.503 23.0113C19.5204 23.393 19.6497 23.7613 19.8748 24.0703C20.1 24.3794 20.4111 24.6157 20.7697 24.7498C21.1282 24.884 21.5182 24.9101 21.8915 24.825C22.2648 24.7399 22.6048 24.5473 22.8693 24.271C23.1339 23.9948 23.3113 23.6471 23.3797 23.2711C23.448 22.8951 23.4043 22.5073 23.2538 22.156C23.1033 21.8046 22.8528 21.505 22.5333 21.2944C22.2138 21.0839 21.8393 20.9716 21.4565 20.9715H21.4562Z" fill="var(--fill-0, white)"/>
<path id="Vector_5" d="M59.0364 17.4583C56.8754 17.3566 55.7839 17.8706 55.0728 18.4124C54.0898 19.1607 53.4922 20.2681 53.4922 22.0375V31.1347H54.7624C55.1055 31.1389 55.4377 31.0147 55.6935 30.7866C55.8276 30.669 55.9346 30.5239 56.0073 30.3612C56.0799 30.1985 56.1165 30.022 56.1144 29.8439V26.4442C56.397 26.9521 56.8271 27.3627 57.3482 27.6219C57.8815 27.8587 58.4605 27.9753 59.0441 27.9633C59.6182 27.974 60.1867 27.8488 60.7029 27.5979C61.2192 27.347 61.6685 26.9776 62.0141 26.52C62.8273 25.3964 63.2348 24.031 63.1701 22.6465C63.2383 21.2728 62.797 19.9222 61.9306 18.8526C61.5722 18.4316 61.1297 18.0901 60.6312 17.85C60.1328 17.6099 59.5896 17.4764 59.0364 17.4583V17.4583ZM59.931 24.9251C59.7558 25.1798 59.5192 25.3864 59.243 25.5259C58.9667 25.6653 58.6598 25.7331 58.3504 25.723C58.0292 25.7395 57.709 25.675 57.4194 25.5356C57.1297 25.3961 56.8799 25.1862 56.6928 24.9251C56.2614 24.2891 56.0577 23.5265 56.1147 22.7606C56.0529 21.9636 56.241 21.1673 56.6528 20.4817C56.8349 20.2244 57.0786 20.0166 57.3617 19.8772C57.6448 19.7379 57.9584 19.6714 58.2738 19.6838C58.5949 19.6681 58.9147 19.7329 59.2043 19.8723C59.4938 20.0117 59.7437 20.2212 59.9313 20.4817C60.3588 21.162 60.5615 21.9591 60.5106 22.7606C60.5527 23.5252 60.3497 24.2833 59.931 24.9251V24.9251Z" fill="var(--fill-0, #0A0080)"/>
<g id="Logo Icon">
<path id="Vector_6" d="M23.1653 0C10.3725 0 0.00261272 6.79089 0.00261272 15.1205C0.00261272 15.3359 0 15.9302 0 16.0057C0 24.8434 9.06385 32 23.1623 32C37.3459 32 46.3272 24.8449 46.3272 16.0073V15.1205C46.3269 6.79089 35.9569 0 23.1653 0ZM45.2828 13.4448C41.9452 14.1819 38.6868 15.239 35.5529 16.6015C33.3554 14.6879 28.2779 10.2812 26.9029 9.25149C26.3697 8.80394 25.7632 8.45164 25.1099 8.21013C24.8252 8.12056 24.5286 8.07431 24.2301 8.07294C23.8501 8.07798 23.4731 8.14138 23.1124 8.26092C22.1467 8.66106 21.2569 9.22338 20.4814 9.92347L20.4373 9.95827C19.6394 10.5915 18.8146 11.2465 18.1906 11.385C17.9176 11.4464 17.6386 11.4776 17.3588 11.478C17.078 11.5014 16.7954 11.4691 16.5271 11.3829C16.2589 11.2968 16.0104 11.1586 15.796 10.9762C15.7571 10.9264 15.7828 10.8464 15.8732 10.7313L15.8849 10.7157L17.8184 8.63688C19.3325 7.12569 20.7627 5.69885 24.054 5.62345C24.1088 5.62187 24.1642 5.62085 24.2182 5.62085C25.7131 5.68171 27.1824 6.02902 28.5458 6.64384C30.3777 7.55777 32.3951 8.04064 34.443 8.05537C36.6833 8.01677 38.8881 7.49055 40.9036 6.51346C43.2518 8.4845 44.8093 10.8584 45.2828 13.4448ZM23.1692 0.892893C29.9592 0.892893 36.0352 2.83531 40.1201 5.89459C38.3378 6.70713 36.4068 7.14402 34.4476 7.17795C32.531 7.16237 30.6434 6.70891 28.9296 5.85236C27.4478 5.17737 25.8474 4.79999 24.2197 4.74173C24.1578 4.74173 24.0953 4.74269 24.034 4.74405C22.0733 4.71541 20.1675 5.39068 18.6639 6.64684C17.7535 6.69446 16.8529 6.85853 15.9844 7.13504C15.3739 7.33827 14.739 7.45967 14.0965 7.49603C13.8543 7.49603 13.4187 7.47392 13.3797 7.47222C11.0695 7.06635 8.80369 6.44051 6.61318 5.60327C10.6899 2.7119 16.596 0.892893 23.1692 0.892893ZM5.8117 6.20689C8.63679 7.36015 12.0642 8.25072 13.148 8.32078C13.4504 8.34062 13.7725 8.37475 14.0948 8.37543C14.8197 8.34034 15.5365 8.2074 16.2257 7.98026C16.636 7.86547 17.0884 7.74024 17.5646 7.64954C17.4372 7.77374 17.3104 7.89993 17.183 8.02742L15.2194 10.1476C15.07 10.2797 14.9644 10.4539 14.9164 10.6472C14.8684 10.8406 14.8802 11.0439 14.9505 11.2303C15.0645 11.4661 15.2436 11.6645 15.4667 11.8021C16.1019 12.1604 16.8216 12.3427 17.5512 12.3299C17.8307 12.3318 18.1096 12.3027 18.3826 12.243C19.2062 12.059 20.0699 11.3721 20.9843 10.6462C21.7419 9.9934 22.6072 9.47667 23.5418 9.11901C23.7745 9.05731 24.0139 9.02454 24.2546 9.02145C24.3163 9.02097 24.3779 9.02466 24.4391 9.0325C25.1582 9.15035 25.8291 9.46976 26.3733 9.95351C27.9857 11.1627 35.1187 17.391 35.189 17.4524C35.3306 17.5865 35.4421 17.7492 35.5159 17.9295C35.5898 18.1099 35.6243 18.3039 35.6172 18.4987C35.6042 18.6854 35.5454 18.866 35.446 19.0246C35.3465 19.1833 35.2094 19.315 35.0469 19.4083C34.7696 19.5933 34.4446 19.6944 34.1111 19.6994C33.8183 19.6997 33.5315 19.6168 33.2841 19.4604C33.2581 19.4389 30.8142 17.202 29.9141 16.4502C29.8015 16.3315 29.6533 16.2525 29.4918 16.2252C29.456 16.2245 29.4205 16.2321 29.388 16.2473C29.3556 16.2626 29.3271 16.2851 29.3048 16.3131C29.1633 16.487 29.3218 16.7283 29.5088 16.8864L32.3636 19.7519C32.5765 19.959 32.7153 20.2301 32.7585 20.5237C32.7659 20.7638 32.7065 21.0013 32.5868 21.2098C32.4672 21.4183 32.292 21.5897 32.0807 21.7049C31.7839 21.9136 31.4317 22.0299 31.0686 22.0389C30.7786 22.0389 30.4951 21.9529 30.2541 21.792L29.8447 21.3895C29.0959 20.6545 28.323 19.8942 27.7574 19.4233C27.6431 19.3058 27.4938 19.2284 27.3318 19.2027C27.2981 19.2022 27.2647 19.2087 27.2337 19.2219C27.2027 19.2351 27.1748 19.2548 27.152 19.2795C27.0875 19.351 27.0424 19.4795 27.2041 19.6929C27.2476 19.7502 27.2958 19.8038 27.3482 19.8532L29.4309 22.1887C29.5512 22.3247 29.6215 22.4976 29.6301 22.6788C29.6387 22.86 29.5851 23.0387 29.4783 23.1854L29.4044 23.2784C29.3434 23.3443 29.2786 23.4067 29.2103 23.4651C28.9155 23.681 28.5578 23.7942 28.1922 23.787C28.0978 23.7875 28.0036 23.7795 27.9107 23.7633C27.7588 23.7513 27.6148 23.6908 27.5001 23.5906L27.474 23.5643C27.3608 23.4469 26.3107 22.3769 25.4421 21.653C25.3343 21.5386 25.1919 21.4626 25.0367 21.4367C25.0011 21.4364 24.9659 21.4437 24.9334 21.4581C24.9009 21.4725 24.8719 21.4937 24.8484 21.5203C24.677 21.7082 24.935 21.9889 25.0444 22.092L26.8203 24.0482C26.8052 24.0915 26.7828 24.1319 26.7539 24.1675C26.6901 24.2554 26.4749 24.4706 25.8304 24.5513C25.7522 24.5613 25.6734 24.5661 25.5945 24.5656C24.9831 24.5264 24.3884 24.3503 23.8546 24.0505C24.0448 23.6474 24.13 23.2029 24.1022 22.7582C24.0744 22.3135 23.9345 21.8831 23.6955 21.5068C23.4565 21.1304 23.1261 20.8205 22.735 20.6056C22.3439 20.3908 21.9048 20.278 21.4584 20.2778C21.4272 20.2778 21.3939 20.2788 21.3626 20.2798C21.4387 19.7762 21.3487 19.2616 21.1062 18.8136C20.8637 18.3655 20.4818 18.0083 20.0181 17.7957C19.6694 17.6396 19.2922 17.5566 18.9099 17.552C18.6323 17.5506 18.3568 17.6005 18.0973 17.699C17.8273 17.1757 17.3608 16.7803 16.7997 16.5992C16.494 16.4911 16.1725 16.4346 15.8483 16.4321C15.3165 16.4291 14.7976 16.595 14.3666 16.9059C14.1707 16.6602 13.925 16.4587 13.6455 16.3144C13.3661 16.1701 13.0593 16.0864 12.7452 16.0687C12.4311 16.0511 12.1168 16.0999 11.8229 16.2119C11.529 16.3239 11.2622 16.4967 11.0399 16.7188C10.4866 16.2968 8.29254 14.9058 2.4196 13.575C2.13908 13.5116 1.50231 13.3296 1.10126 13.2122C1.6522 10.5811 3.32735 8.17833 5.81182 6.20689H5.8117ZM16.7054 21.4649L16.6419 21.4082H16.5777C16.5117 21.4131 16.4489 21.4384 16.3981 21.4807C16.1458 21.6745 15.8385 21.7836 15.5202 21.7925C15.3525 21.7911 15.1865 21.7589 15.0304 21.6975C14.5994 21.537 14.2415 21.2257 14.0231 20.8216C13.8047 20.4175 13.7406 19.948 13.8429 19.5003C13.8499 19.4678 13.8481 19.434 13.8376 19.4023C13.8272 19.3707 13.8084 19.3425 13.7834 19.3205L13.6873 19.2421L13.5974 19.3276C13.3357 19.5812 12.9853 19.723 12.6205 19.7228C12.3484 19.7239 12.0818 19.6466 11.8526 19.5002C11.6235 19.3537 11.4415 19.1444 11.3287 18.8972C11.2158 18.6501 11.1769 18.3757 11.2165 18.1071C11.2561 17.8384 11.3725 17.5868 11.5519 17.3826C11.7312 17.1783 11.9658 17.0301 12.2275 16.9557C12.4892 16.8813 12.7669 16.8839 13.0271 16.9632C13.2874 17.0424 13.5192 17.195 13.6947 17.4025C13.8702 17.6101 13.9819 17.8638 14.0165 18.1331L14.0652 18.512L14.2737 18.1913C14.5087 17.8274 14.8577 17.5513 15.2664 17.4062C15.6751 17.261 16.1204 17.255 16.5329 17.389C16.8178 17.4783 17.0675 17.6544 17.2469 17.8926C17.4264 18.1309 17.5265 18.4192 17.5332 18.7172C17.5485 18.9009 17.6795 18.9099 17.7049 18.9099C17.7366 18.9077 17.7675 18.899 17.7957 18.8843C17.8238 18.8696 17.8486 18.8492 17.8685 18.8245C18.0029 18.6845 18.1645 18.5734 18.3434 18.498C18.5223 18.4226 18.7148 18.3845 18.909 18.386C19.178 18.3919 19.4432 18.4517 19.6887 18.5618C21.0195 19.1315 20.416 20.8194 20.4089 20.8367C20.2941 21.1164 20.2896 21.2399 20.3971 21.3112L20.4496 21.3358H20.4886C20.5774 21.3259 20.6642 21.3032 20.7464 21.2686C20.9732 21.1791 21.2127 21.1263 21.4561 21.1121H21.4568C21.6952 21.1122 21.9313 21.1591 22.1515 21.2502C22.3717 21.3413 22.5718 21.4748 22.7403 21.6431C22.9088 21.8114 23.0425 22.0112 23.1337 22.231C23.2248 22.4508 23.2717 22.6865 23.2717 22.9244C23.2716 23.1623 23.2246 23.3979 23.1333 23.6177C23.042 23.8375 22.9082 24.0372 22.7396 24.2054C22.571 24.3736 22.3709 24.507 22.1506 24.598C21.9303 24.689 21.6942 24.7358 21.4559 24.7357C20.9882 24.7385 20.5378 24.5598 20.1999 24.2372C19.8619 23.9146 19.6628 23.4736 19.6447 23.0072C19.6421 22.9242 19.6334 22.7038 19.4459 22.7038C19.3607 22.7136 19.2823 22.7549 19.226 22.8195C18.9943 23.0657 18.6742 23.2099 18.336 23.2206C18.1341 23.2164 17.9349 23.1733 17.7494 23.0936C16.7157 22.6747 16.7015 21.9663 16.7433 21.6814C16.7534 21.6448 16.7553 21.6063 16.7488 21.5689C16.7422 21.5314 16.7274 21.4959 16.7054 21.4649V21.4649ZM23.1691 29.3332C10.8686 29.3332 0.897411 22.9664 0.897411 15.113C0.899322 14.7991 0.917237 14.4855 0.951086 14.1734C1.04929 14.1968 2.02616 14.4299 2.22848 14.4753C8.22778 15.8054 10.2102 17.1883 10.5452 17.4498C10.4028 17.7907 10.3469 18.1614 10.3825 18.5291C10.4181 18.8967 10.5441 19.2499 10.7493 19.5573C10.9546 19.8647 11.2327 20.1167 11.559 20.291C11.8853 20.4653 12.2496 20.5566 12.6197 20.5566C12.758 20.5568 12.896 20.5441 13.0319 20.5185C13.1206 20.9632 13.3235 21.3772 13.6208 21.72C13.9181 22.0627 14.2995 22.3225 14.7278 22.4737C14.983 22.5737 15.2545 22.626 15.5286 22.6278C15.7012 22.6289 15.8732 22.6077 16.0403 22.5648C16.2463 22.9976 16.5681 23.3652 16.9701 23.6271C17.3721 23.889 17.8387 24.035 18.3186 24.0491C18.5528 24.049 18.785 24.0076 19.0047 23.9268C19.1711 24.3331 19.4363 24.6916 19.7764 24.9699C20.1165 25.2482 20.5207 25.4374 20.9526 25.5206C21.3844 25.6038 21.8302 25.5782 22.2496 25.4462C22.669 25.3142 23.0488 25.0799 23.3547 24.7646C24.039 25.1625 24.8084 25.3918 25.5992 25.4335C25.7128 25.4332 25.8262 25.426 25.9388 25.4121C26.2308 25.4032 26.5175 25.3323 26.7799 25.2042C27.0423 25.076 27.2743 24.8936 27.4604 24.6689C27.4956 24.6207 27.527 24.5698 27.5544 24.5167C27.7876 24.5876 28.0295 24.6254 28.2732 24.6289C28.8 24.6184 29.3091 24.4367 29.7232 24.1115C30.1604 23.825 30.4676 23.3789 30.5789 22.8689C30.5799 22.8632 30.5805 22.8576 30.5809 22.8519C30.7407 22.8843 30.9033 22.9006 31.0663 22.9006C31.5988 22.894 32.1172 22.7299 32.5562 22.4291C32.89 22.2359 33.1655 21.9564 33.3536 21.6201C33.5417 21.2838 33.6355 20.9031 33.625 20.5181C33.7869 20.5517 33.9517 20.5688 34.117 20.5691C34.6138 20.5637 35.0984 20.4148 35.5123 20.1404C35.7872 19.9727 36.0186 19.7425 36.1874 19.4685C36.3562 19.1946 36.4576 18.8847 36.4835 18.5641C36.5165 18.118 36.4087 17.6728 36.1753 17.2909C39.1678 16.0718 42.2577 15.106 45.4124 14.4038C45.4305 14.6389 45.4405 14.8755 45.4405 15.1135C45.4405 22.9664 35.4694 29.3332 23.1692 29.3332L23.1691 29.3332Z" fill="var(--fill-0, #0A0080)"/>
<g id="Logo Text">
<path id="Vector_7" d="M125.573 4.65419C124.732 3.60194 123.455 3.07597 121.742 3.07628C120.031 3.07628 118.754 3.60225 117.912 4.65419C117.068 5.71181 116.621 7.03086 116.649 8.38273C116.615 9.74023 117.062 11.0662 117.912 12.1266C118.753 13.1616 120.03 13.6796 121.742 13.6805C123.456 13.6805 124.733 13.1625 125.573 12.1266C126.423 11.0661 126.87 9.74012 126.835 8.38273C126.863 7.03097 126.417 5.7119 125.573 4.65419V4.65419ZM123.489 10.6887C123.273 10.9431 123.003 11.1474 122.7 11.2876C122.396 11.4277 122.066 11.5003 121.731 11.5003C121.397 11.5003 121.067 11.4277 120.763 11.2876C120.46 11.1474 120.19 10.9431 119.974 10.6887C119.522 10.0076 119.306 9.19785 119.357 8.38273C119.305 7.56909 119.522 6.76082 119.974 6.08154C120.191 5.82848 120.461 5.62535 120.764 5.48609C121.067 5.34682 121.398 5.27472 121.731 5.27472C122.065 5.27472 122.395 5.34682 122.699 5.48609C123.002 5.62535 123.272 5.82848 123.489 6.08154C123.938 6.76209 124.153 7.56972 124.102 8.38273C124.153 9.19722 123.938 10.0063 123.489 10.6887V10.6887Z" fill="var(--fill-0, #0A0080)"/>
<path id="Vector_8" d="M104.074 3.77266C103.163 3.32763 102.16 3.10537 101.146 3.12426C99.4565 3.12426 98.2648 3.56327 97.5709 4.4413C97.1121 5.06763 96.8547 5.8182 96.8325 6.59374H99.3564C99.3959 6.26066 99.5243 5.9443 99.7283 5.67772C99.9028 5.50931 100.112 5.38108 100.342 5.30203C100.571 5.22298 100.815 5.19502 101.056 5.22013C101.493 5.19508 101.929 5.27539 102.327 5.45425C102.473 5.53906 102.591 5.66392 102.667 5.81394C102.744 5.96395 102.776 6.13278 102.759 6.30027C102.756 6.46764 102.7 6.62987 102.599 6.76326C102.498 6.89666 102.356 6.99423 102.196 7.04175C101.858 7.16306 101.507 7.24012 101.15 7.27099L100.255 7.38034C99.4516 7.44682 98.6679 7.66456 97.9456 8.02205C97.4798 8.28645 97.0983 8.67673 96.845 9.14798C96.5916 9.61922 96.4768 10.1523 96.5136 10.6858C96.489 11.0943 96.5562 11.503 96.7101 11.8822C96.8641 12.2614 97.101 12.6015 97.4035 12.8777C98.0427 13.3891 98.8401 13.6628 99.6593 13.6517C105.365 13.9068 105.301 10.6513 105.353 9.97411V6.22737C105.353 5.02543 104.926 4.20719 104.074 3.77266ZM102.748 9.45898C102.78 9.79767 102.728 10.1389 102.597 10.4531C102.467 10.7673 102.262 11.0451 102 11.2623C101.538 11.5861 100.987 11.7591 100.422 11.7573C100.091 11.7664 99.7664 11.661 99.5036 11.4589C99.3698 11.3381 99.2661 11.1878 99.2007 11.02C99.1353 10.8521 99.11 10.6714 99.1269 10.4921C99.1153 10.2684 99.1669 10.0459 99.2761 9.85012C99.3852 9.65436 99.5473 9.49321 99.7439 9.38512C100.123 9.20229 100.529 9.0824 100.946 9.03019L101.542 8.91988C101.78 8.87855 102.015 8.81788 102.243 8.73848C102.42 8.67393 102.59 8.58997 102.748 8.48814V9.45898Z" fill="var(--fill-0, #0A0080)"/>
<path id="Vector_9" d="M91.0631 5.35621C91.3342 5.33461 91.6066 5.37812 91.8574 5.48309C92.1082 5.58807 92.3302 5.75146 92.5048 5.9596C92.7168 6.25716 92.8527 6.60192 92.9007 6.96388H95.7148C95.561 5.54615 95.0645 4.55719 94.2251 3.997C93.2532 3.40248 92.126 3.11022 90.9872 3.15745C90.3126 3.12085 89.638 3.22897 89.0089 3.47452C88.3797 3.72007 87.8106 4.09735 87.3399 4.58094C86.4023 5.68972 85.9286 7.11638 86.0174 8.56458C85.9585 9.89883 86.3833 11.2096 87.214 12.2567C88.0117 13.2053 89.2559 13.6798 90.9468 13.6802C91.6764 13.7278 92.4067 13.5972 93.0744 13.2997C93.7421 13.0022 94.3271 12.5467 94.7787 11.9727C95.2945 11.3293 95.6097 10.5488 95.685 9.72816H92.8805C92.8463 10.1936 92.6747 10.6385 92.3875 11.0068C92.2102 11.1858 91.995 11.323 91.7577 11.4081C91.5204 11.4932 91.2669 11.5243 91.016 11.4989C90.6129 11.5249 90.2124 11.4173 89.8769 11.1926C89.5415 10.968 89.2898 10.6389 89.1611 10.2567C88.9601 9.69368 88.8678 9.0977 88.8891 8.50035C88.8677 7.87579 88.9599 7.25253 89.1612 6.66077C89.2894 6.26427 89.5456 5.92129 89.8896 5.6853C90.2336 5.44932 90.6463 5.3336 91.0631 5.35621V5.35621Z" fill="var(--fill-0, #0A0080)"/>
<path id="Vector_10" d="M85.2629 3.15635C79.4809 3.15635 79.8232 8.26519 79.8232 8.26519V13.4549H82.4472V8.58769C82.4123 7.98171 82.5152 7.3757 82.7483 6.81506C83.1087 6.13408 83.8132 5.79325 84.8617 5.79257C84.9405 5.79257 85.0443 5.79734 85.1721 5.80312C85.2999 5.80981 85.4451 5.82013 85.6123 5.84048V3.17676C85.4961 3.16809 85.4201 3.16542 85.3874 3.1614C85.3533 3.15851 85.312 3.15635 85.2629 3.15635Z" fill="var(--fill-0, #0A0080)"/>
<path id="Vector_11" d="M77.7224 5.09283C77.2992 4.44912 76.7016 3.93853 75.9991 3.62041C75.26 3.30221 74.4618 3.14398 73.6569 3.15614C73 3.13041 72.3447 3.23938 71.7316 3.4763C71.1185 3.71323 70.5606 4.07309 70.0923 4.53366C69.1773 5.4545 68.7192 6.77599 68.7178 8.49814C68.7178 10.3379 69.2252 11.6655 70.24 12.4809C71.2293 13.2883 72.4722 13.722 73.7501 13.7058C74.4428 13.7461 75.1361 13.6373 75.783 13.3867C76.4299 13.1361 77.0152 12.7496 77.4993 12.2535C77.9267 11.8357 78.2403 11.3161 78.4104 10.7437H75.6273C75.5274 10.8921 75.4066 11.0256 75.2688 11.1399C74.8411 11.4385 74.3224 11.5789 73.8022 11.537C73.314 11.5649 72.8283 11.4488 72.4057 11.2032C72.0633 10.9783 71.7852 10.6685 71.5989 10.3041C71.4126 9.93966 71.3243 9.53319 71.3427 9.12448H78.6028C78.6235 8.46489 78.5943 7.80467 78.5154 7.14947C78.4109 6.41274 78.1397 5.70942 77.7224 5.09283V5.09283ZM71.4071 7.40746C71.4678 6.83351 71.711 6.29402 72.101 5.86787C72.3073 5.67146 72.552 5.51966 72.8198 5.42195C73.0875 5.32425 73.3726 5.28274 73.6572 5.30002C74.2216 5.28189 74.7726 5.47329 75.2037 5.8372C75.42 6.0382 75.5931 6.28111 75.7122 6.55109C75.8314 6.82107 75.8941 7.11246 75.8966 7.40746H71.4071Z" fill="var(--fill-0, #0A0080)"/>
<path id="Vector_12" d="M63.5012 3.12436C62.9326 3.11941 62.3702 3.24129 61.8549 3.4811C61.3396 3.72091 60.8845 4.07258 60.5228 4.51044C60.1671 4.06522 59.7129 3.70835 59.1958 3.46786C58.6787 3.22736 58.1127 3.10978 57.5424 3.12436C54.9802 3.12436 53.3272 5.00345 53.3272 7.49075V13.4561H55.7251V7.43322C55.7101 7.18902 55.7464 6.9444 55.8319 6.71508C55.9173 6.48577 56.0499 6.27684 56.2211 6.10174C56.3923 5.92664 56.5983 5.78924 56.8259 5.6984C57.0535 5.60755 57.2976 5.56526 57.5426 5.57424C57.7853 5.56154 58.0279 5.60191 58.2534 5.69253C58.4788 5.78316 58.6817 5.92186 58.8479 6.09892C59.014 6.27598 59.1394 6.48713 59.2153 6.71761C59.2911 6.94808 59.3156 7.19231 59.287 7.43322V13.4561H61.6849V7.43322C61.6715 7.18949 61.709 6.94564 61.7949 6.7171C61.8808 6.48857 62.0133 6.28033 62.1841 6.10558C62.3548 5.93082 62.5601 5.79336 62.7868 5.7019C63.0136 5.61044 63.2569 5.56697 63.5014 5.57424C63.7449 5.56137 63.9884 5.60146 64.215 5.69174C64.4415 5.78202 64.6457 5.92033 64.8134 6.09712C64.9812 6.2739 65.1084 6.48494 65.1864 6.71563C65.2643 6.94632 65.2912 7.19116 65.265 7.43322V13.4561H67.661V7.49075C67.6608 4.92704 66.1182 3.12436 63.5012 3.12436Z" fill="var(--fill-0, #0A0080)"/>
<path id="Vector_13" d="M113.226 1.84949L113.223 4.6552C112.943 4.19705 112.55 3.81823 112.082 3.55495C111.589 3.28455 111.034 3.14774 110.472 3.15813C109.871 3.1376 109.273 3.25903 108.728 3.51255C108.182 3.76608 107.704 4.14452 107.333 4.61711C106.491 5.80367 106.077 7.24004 106.157 8.6919C106.103 10.0031 106.527 11.2895 107.351 12.3121C108.147 13.2501 109.706 13.6626 111.092 13.6626C115.923 13.6626 115.866 9.52839 115.866 9.52839L115.868 0.0125685C115.868 0.0125685 113.226 -0.269455 113.226 1.84949ZM112.722 10.7098C112.535 10.9784 112.282 11.1949 111.988 11.3386C111.693 11.4823 111.367 11.5485 111.04 11.531C110.716 11.5506 110.393 11.4845 110.104 11.3395C109.814 11.1944 109.568 10.9756 109.39 10.7051C108.998 10.0141 108.81 9.22669 108.847 8.43357C108.82 7.68439 109.005 6.94275 109.38 6.29355C109.555 6.01121 109.803 5.78167 110.099 5.62959C110.394 5.4775 110.725 5.40861 111.057 5.4303C111.539 5.42393 112.008 5.59226 112.375 5.9041C112.99 6.42784 113.299 7.3679 113.299 8.58323C113.331 9.33456 113.13 10.0775 112.722 10.7098V10.7098Z" fill="var(--fill-0, #0A0080)"/>
<path id="Vector_14" d="M81.4127 18.3974C80.4542 17.6564 79.2505 17.3043 78.0429 17.4116C76.4525 17.4547 75.2957 17.8988 74.576 18.8721C73.8136 19.9933 73.4354 21.3307 73.4979 22.6842C73.4452 23.8226 73.7278 24.9515 74.3108 25.9315C74.7705 26.6821 75.4529 27.2713 76.2633 27.6174C76.9877 27.919 77.7885 27.986 78.5531 27.8092C78.9329 27.7224 79.2914 27.5602 79.607 27.3322C79.9226 27.1041 80.189 26.815 80.3902 26.482V27.1245C80.3915 27.7785 80.1864 28.4163 79.8041 28.9475C79.5184 29.3145 79.1174 29.5749 78.6655 29.6869C78.2475 29.7629 77.8164 29.7113 77.4283 29.5389C77.0402 29.3664 76.7132 29.0811 76.4901 28.7203H73.7257C74.4414 30.8684 75.7272 31.816 78.0429 31.9838C81.7788 32.2523 82.9693 29.0953 82.9655 27.3921V22.0398C82.9654 20.2704 82.3879 19.1368 81.4127 18.3974ZM80.3143 23.6547C80.262 24.1247 80.0925 24.5741 79.8215 24.9619C79.342 25.6188 78.5976 25.8531 77.5883 25.6648C76.5775 25.4739 76.0721 24.5063 76.0721 22.7619C76.0575 22.0152 76.2133 21.275 76.5276 20.5973C76.6873 20.2818 76.9394 20.0223 77.2503 19.8531C77.5613 19.6838 77.9165 19.613 78.2687 19.6499C78.5467 19.6343 78.8242 19.6886 79.0757 19.8079C79.3272 19.9272 79.5446 20.1076 79.708 20.3327C80.0396 20.7937 80.2543 21.3281 80.3336 21.8901C80.4213 22.4756 80.4148 23.0713 80.3143 23.6547Z" fill="var(--fill-0, #0A0080)"/>
<path id="Vector_15" d="M71.2513 18.1318C70.3404 17.6878 69.3371 17.4656 68.3235 17.4835C66.6343 17.4835 65.4432 17.9227 64.75 18.8012C64.2917 19.4272 64.0344 20.1773 64.0121 20.9523H66.5363C66.5759 20.6197 66.704 20.3038 66.9072 20.0374C67.0817 19.869 67.291 19.7407 67.5204 19.6615C67.7497 19.5823 67.9937 19.5542 68.2351 19.5789C68.6713 19.5536 69.1071 19.6339 69.5054 19.8129C69.6511 19.898 69.7692 20.023 69.8458 20.1731C69.9223 20.3232 69.954 20.4922 69.937 20.6598C69.9347 20.8271 69.8787 20.9893 69.7774 21.1227C69.6761 21.256 69.5347 21.3536 69.3739 21.4011C69.0367 21.5216 68.6853 21.5986 68.3285 21.6303L67.4349 21.7386C66.6316 21.8054 65.8482 22.0231 65.1259 22.3802C64.6601 22.6442 64.2784 23.0342 64.025 23.5052C63.7715 23.9761 63.6565 24.509 63.6932 25.0424C63.6685 25.4508 63.7355 25.8595 63.8895 26.2387C64.0434 26.6178 64.2804 26.9578 64.583 27.2338C65.2219 27.746 66.0197 28.02 66.8392 28.0087C72.5417 28.2638 72.4776 25.0079 72.5294 24.3318V20.5847C72.5293 19.3842 72.1033 18.5666 71.2513 18.1318ZM69.9253 23.8168C69.9572 24.1553 69.9058 24.4965 69.7755 24.8107C69.6453 25.1249 69.4401 25.4025 69.1778 25.6195C68.7161 25.9433 68.1652 26.1162 67.601 26.1143C67.2695 26.1234 66.945 26.0181 66.6823 25.8161C66.5484 25.6954 66.4444 25.5452 66.3789 25.3774C66.3133 25.2095 66.2879 25.0287 66.3047 24.8494C66.2933 24.6256 66.3452 24.4032 66.4544 24.2075C66.5637 24.0118 66.7259 23.8507 66.9226 23.7427C67.301 23.5601 67.7067 23.4403 68.1236 23.3879L68.7204 23.2775C68.9579 23.2371 69.1916 23.1768 69.419 23.0973C69.5965 23.0324 69.7664 22.9482 69.9253 22.846L69.9253 23.8168Z" fill="var(--fill-0, #0A0080)"/>
<path id="Vector_16" d="M92.8846 18.9595C92.0419 17.9065 90.7646 17.3803 89.0526 17.381C87.3422 17.381 86.0662 17.9071 85.2244 18.9595C84.3805 20.0165 83.9338 21.335 83.9618 22.6862C83.9274 24.0435 84.3746 25.3691 85.2244 26.4293C86.065 27.4631 87.3411 27.9807 89.0526 27.9819C90.7659 27.9819 92.0432 27.4644 92.8846 26.4293C93.7327 25.3684 94.1787 24.043 94.1443 22.6862C94.1724 21.3354 93.7269 20.0173 92.8846 18.9595V18.9595ZM90.7995 24.9898C90.5834 25.2444 90.3143 25.4489 90.011 25.5891C89.7076 25.7294 89.3773 25.8021 89.043 25.8021C88.7087 25.8021 88.3784 25.7294 88.0751 25.5891C87.7718 25.4489 87.5027 25.2444 87.2865 24.9898C86.8334 24.3102 86.6163 23.5009 86.6687 22.6862C86.6161 21.8728 86.8332 21.0646 87.2865 20.3866C87.5037 20.1336 87.7731 19.9305 88.0763 19.7913C88.3795 19.6521 88.7093 19.58 89.043 19.58C89.3768 19.58 89.7066 19.6521 90.0098 19.7913C90.313 19.9305 90.5824 20.1336 90.7995 20.3866C91.2486 21.0663 91.4635 21.8736 91.4116 22.6862C91.4633 23.5 91.2485 24.3085 90.7995 24.9898Z" fill="var(--fill-0, #0A0080)"/>
</g>
</g>
</g>
</svg>
